<?xml version="1.0" encoding="UTF-8"?>
<svg width="23px" height="23px" viewBox="0 0 23 23" version="1.1" xmlns="http://www.w3.org/2000/svg" xmlns:xlink="http://www.w3.org/1999/xlink">
    <title>icon/分支</title>
    <defs>
        <path d="M15.1666667,0 C15.8413333,0 16.3888889,0.547555556 16.3888889,1.22222222 L16.3888889,6.11111111 C16.3888889,6.78577778 15.8413333,7.33333333 15.1666667,7.33333333 L12.7222222,7.33333333 L12.7222222,9.77777778 L17.6111111,9.77777778 C18.2857778,9.77777778 18.8333333,10.3253333 18.8333333,11 L18.8333333,14.6666667 L21.2777778,14.6666667 C21.9524444,14.6666667 22.5,15.2142222 22.5,15.8888889 L22.5,20.7777778 C22.5,21.4524444 21.9524444,22 21.2777778,22 L13.9444444,22 C13.2697778,22 12.7222222,21.4524444 12.7222222,20.7777778 L12.7222222,15.8888889 C12.7222222,15.2142222 13.2697778,14.6666667 13.9444444,14.6666667 L16.3888889,14.6666667 L16.3888889,12.2222222 L6.61111111,12.2222222 L6.61111111,14.6666667 L9.05555556,14.6666667 C9.73022222,14.6666667 10.2777778,15.2142222 10.2777778,15.8888889 L10.2777778,20.7777778 C10.2777778,21.4524444 9.73022222,22 9.05555556,22 L1.72222222,22 C1.04755556,22 0.5,21.4524444 0.5,20.7777778 L0.5,15.8888889 C0.5,15.2142222 1.04755556,14.6666667 1.72222222,14.6666667 L4.16666667,14.6666667 L4.16666667,11 C4.16666667,10.3253333 4.71422222,9.77777778 5.38888889,9.77777778 L10.2777778,9.77777778 L10.2777778,7.33333333 L7.83333333,7.33333333 C7.15866667,7.33333333 6.61111111,6.78577778 6.61111111,6.11111111 L6.61111111,1.22222222 C6.61111111,0.547555556 7.15866667,0 7.83333333,0 L15.1666667,0 Z M7.83333333,17.1111111 L2.94444444,17.1111111 L2.94444444,19.5555556 L7.83333333,19.5555556 L7.83333333,17.1111111 Z M20.0555556,17.1111111 L15.1666667,17.1111111 L15.1666667,19.5555556 L20.0555556,19.5555556 L20.0555556,17.1111111 Z M13.9444444,2.44444444 L9.05555556,2.44444444 L9.05555556,4.88888889 L13.9444444,4.88888889 L13.9444444,2.44444444 Z" id="path-1"></path>
    </defs>
    <g id="客户档案" stroke="none" stroke-width="1" fill="none" fill-rule="evenodd">
        <g id="司南_客户管理_客户详情v1.3" transform="translate(-397.000000, -795.000000)">
            <g id="分支信息" transform="translate(370.000000, 766.000000)">
                <g id="icon/分支" transform="translate(24.000000, 26.000000)">
                    <polygon id="Path" points="0 0 28 0 28 28 0 28"></polygon>
                    <g id="Rectangle" transform="translate(3.000000, 3.500000)">
                        <mask id="mask-2" fill="white">
                            <use xlink:href="#path-1"></use>
                        </mask>
                        <use id="Mask" fill="#2E3341" fill-rule="nonzero" xlink:href="#path-1"></use>
                        <rect fill="#1C66FF" mask="url(#mask-2)" x="-3" y="9.5" width="30" height="16"></rect>
                    </g>
                </g>
            </g>
        </g>
    </g>
</svg>